<svg width="400" height="400" viewBox="0 0 400 400" fill="none" xmlns="http://www.w3.org/2000/svg">
<g clip-path="url(#clip0_76_126)">
<rect width="400" height="400" rx="80" fill="url(#paint0_linear_76_126)"/>
<path fill-rule="evenodd" clip-rule="evenodd" d="M263.965 29L302.057 67.0925L231.763 137.387L177.876 191.274C167.357 201.793 167.357 218.848 177.876 229.367C180.585 232.075 183.727 234.087 187.079 235.4L147.905 274.574C145.081 272.414 142.366 270.042 139.783 267.459C108.226 235.902 108.226 184.739 139.783 153.182L139.819 153.146L263.965 29ZM206.765 185.24C210.117 186.554 213.259 188.565 215.968 191.274C226.338 201.643 226.485 218.364 216.411 228.914L216.416 228.919L215.983 229.352L215.968 229.367L215.954 229.381L162.081 283.254L121.185 324.15L159.277 362.243L254.509 267.011L254.507 267.01C285.617 235.418 285.468 184.589 254.061 153.182C251.478 150.599 248.763 148.227 245.939 146.067L206.765 185.24Z" fill="url(#paint1_linear_76_126)"/>
</g>
<defs>
<linearGradient id="paint0_linear_76_126" x1="200" y1="0" x2="200" y2="400" gradientUnits="userSpaceOnUse">
<stop stop-color="#313131"/>
<stop offset="1" stop-color="#141414"/>
</linearGradient>
<linearGradient id="paint1_linear_76_126" x1="165.516" y1="29" x2="165.516" y2="373.244" gradientUnits="userSpaceOnUse">
<stop stop-color="#FCC025"/>
<stop offset="1" stop-color="#DE7E07"/>
</linearGradient>
<clipPath id="clip0_76_126">
<rect width="400" height="400" fill="white"/>
</clipPath>
</defs>
</svg>
