<svg width="200" height="200" viewBox="0 0 200 200" fill="none" xmlns="http://www.w3.org/2000/svg">
<g clip-path="url(#clip0_101_74)">
<path d="M10.7143 0C7.87268 0 5.14746 1.12882 3.13814 3.13814C1.12882 5.14746 0 7.87268 0 10.7143V17.8571C0 23.7714 4.8 28.5714 10.7143 28.5714H14.2857C101.071 28.5714 171.429 98.9286 171.429 185.714V189.286C171.429 195.2 176.229 200 182.143 200H189.286C192.127 200 194.853 198.871 196.862 196.862C198.871 194.853 200 192.127 200 189.286V185.714C200 83.1429 116.857 0 14.2857 0H10.7143Z" fill="url(#paint0_linear_101_74)"/>
<path d="M0 82.143C0 79.3014 1.12882 76.5762 3.13814 74.5669C5.14746 72.5575 7.87268 71.4287 10.7143 71.4287H14.2857C44.5962 71.4287 73.6652 83.4695 95.0979 104.902C116.531 126.335 128.571 155.404 128.571 185.714V189.286C128.571 192.127 127.443 194.853 125.433 196.862C123.424 198.871 120.699 200 117.857 200H110.714C107.873 200 105.147 198.871 103.138 196.862C101.129 194.853 100 192.127 100 189.286V185.714C100 162.982 90.9694 141.18 74.8949 125.105C58.8203 109.031 37.0186 100 14.2857 100H10.7143C7.87268 100 5.14746 98.8713 3.13814 96.862C1.12882 94.8527 0 92.1275 0 89.2859V82.143ZM57.1428 171.429C57.1428 179.006 54.1327 186.274 48.7745 191.632C43.4163 196.99 36.149 200 28.5714 200C20.9938 200 13.7266 196.99 8.36838 191.632C3.01019 186.274 0 179.006 0 171.429C0 163.851 3.01019 156.584 8.36838 151.226C13.7266 145.867 20.9938 142.857 28.5714 142.857C36.149 142.857 43.4163 145.867 48.7745 151.226C54.1327 156.584 57.1428 163.851 57.1428 171.429Z" fill="url(#paint1_linear_101_74)"/>
</g>
<defs>
<linearGradient id="paint0_linear_101_74" x1="-1.09511" y1="13.6832" x2="179.993" y2="198.625" gradientUnits="userSpaceOnUse">
<stop stop-color="#FBBD25"/>
<stop offset="1" stop-color="#E1850A"/>
</linearGradient>
<linearGradient id="paint1_linear_101_74" x1="-0.703998" y1="80.225" x2="115.71" y2="199.116" gradientUnits="userSpaceOnUse">
<stop stop-color="#FBBD25"/>
<stop offset="1" stop-color="#E1850A"/>
</linearGradient>
<clipPath id="clip0_101_74">
<rect width="200" height="200" fill="white"/>
</clipPath>
</defs>
</svg>
