<svg width="924" height="512" viewBox="0 0 924 512" fill="none" xmlns="http://www.w3.org/2000/svg">
<path d="M25.856 404V105.04H171.7C191.092 105.04 207.387 108.407 220.584 115.14C234.051 121.604 244.151 130.492 250.884 141.804C257.887 152.847 261.388 165.101 261.388 178.568C261.388 191.227 259.099 201.865 254.52 210.484C249.941 219.103 244.151 226.105 237.148 231.492C230.145 236.879 223.008 240.515 215.736 242.4V246.036C223.277 247.652 231.492 251.153 240.38 256.54C249.537 261.927 257.348 269.737 263.812 279.972C270.545 289.937 273.912 302.865 273.912 318.756C273.912 333.031 270.545 346.632 263.812 359.56C257.348 372.488 246.844 383.127 232.3 391.476C217.756 399.825 198.633 404 174.932 404H25.856ZM158.368 163.216H95.748V224.22H158.368C170.488 224.22 179.376 221.392 185.032 215.736C190.957 209.811 193.92 202.404 193.92 193.516C193.92 184.897 190.957 177.76 185.032 172.104C179.376 166.179 170.488 163.216 158.368 163.216ZM163.62 276.74H95.748V345.824H163.62C177.356 345.824 187.456 342.592 193.92 336.128C200.384 329.395 203.616 320.911 203.616 310.676C203.616 300.98 200.384 292.9 193.92 286.436C187.456 279.972 177.356 276.74 163.62 276.74ZM296.53 404L397.126 105.04H490.854L591.45 404H518.326L500.954 349.46H387.026L369.654 404H296.53ZM406.418 289.668H481.966L443.99 172.104L406.418 289.668ZM756.301 408.04C730.714 408.04 708.359 403.731 689.237 395.112C670.114 386.224 654.089 374.508 641.161 359.964C628.502 345.151 618.941 328.587 612.477 310.272C606.013 291.957 602.781 273.239 602.781 254.116C602.781 234.993 606.013 216.409 612.477 198.364C618.941 180.049 628.502 163.62 641.161 149.076C654.089 134.532 670.114 122.951 689.237 114.332C708.359 105.444 730.714 101 756.301 101C781.618 101 803.838 105.444 822.961 114.332C842.083 122.951 857.974 134.532 870.633 149.076C883.561 163.62 893.257 180.049 899.721 198.364C906.185 216.409 909.417 234.993 909.417 254.116C909.417 272.7 906.319 291.015 900.125 309.06C894.199 326.836 885.311 342.861 873.461 357.136L914.265 404H842.353L831.041 391.072C820.537 396.459 808.955 400.633 796.297 403.596C783.907 406.559 770.575 408.04 756.301 408.04ZM756.301 345.42C766.805 345.42 776.635 343.669 785.793 340.168L740.545 289.264L784.177 254.116L825.789 302.192C833.061 287.648 836.697 271.623 836.697 254.116C836.697 239.033 833.599 224.624 827.405 210.888C821.479 196.883 812.457 185.436 800.337 176.548C788.486 167.66 773.807 163.216 756.301 163.216C738.525 163.216 723.577 167.66 711.457 176.548C699.606 185.436 690.718 196.883 684.793 210.888C678.867 224.624 675.905 239.033 675.905 254.116C675.905 269.468 678.867 284.147 684.793 298.152C690.718 311.888 699.606 323.2 711.457 332.088C723.577 340.976 738.525 345.42 756.301 345.42Z" fill="url(#paint0_linear_52_92)"/>
<defs>
<linearGradient id="paint0_linear_52_92" x1="-2.18744e-07" y1="116.13" x2="924" y2="471.096" gradientUnits="userSpaceOnUse">
<stop stop-color="#FBBE25"/>
<stop offset="1" stop-color="#E08309"/>
</linearGradient>
</defs>
</svg>
