<svg width="1420" height="698" viewBox="0 0 1420 698" fill="none" xmlns="http://www.w3.org/2000/svg">
<g clip-path="url(#clip0_38_140)">
<path fill-rule="evenodd" clip-rule="evenodd" d="M275.462 39.7029L346.173 110.414L215.686 240.9L115.656 340.93C96.1296 360.457 96.1296 392.115 115.656 411.641C120.684 416.669 126.517 420.403 132.74 422.841L60.0218 495.559C54.779 491.549 49.7401 487.147 44.9451 482.352C-13.6335 423.773 -13.6335 328.798 44.9451 270.22L275.462 39.7029ZM169.282 329.73C175.505 332.169 181.338 335.902 186.366 340.93C205.615 360.179 205.889 391.217 187.188 410.8L187.198 410.81L186.366 411.641L86.3358 511.672L10.421 587.587L81.1317 658.297L257.077 482.352L257.908 481.52L257.905 481.517C315.654 422.875 315.378 328.521 257.077 270.22C252.282 265.425 247.243 261.022 242 257.012L169.282 329.73Z" fill="url(#paint0_linear_38_140)"/>
<path d="M522.817 499V200.04H668.661C688.053 200.04 704.348 203.407 717.545 210.14C731.012 216.604 741.112 225.492 747.845 236.804C754.848 247.847 758.349 260.101 758.349 273.568C758.349 286.227 756.06 296.865 751.481 305.484C746.902 314.103 741.112 321.105 734.109 326.492C727.106 331.879 719.969 335.515 712.697 337.4V341.036C720.238 342.652 728.453 346.153 737.341 351.54C746.498 356.927 754.309 364.737 760.773 374.972C767.506 384.937 770.873 397.865 770.873 413.756C770.873 428.031 767.506 441.632 760.773 454.56C754.309 467.488 743.805 478.127 729.261 486.476C714.717 494.825 695.594 499 671.893 499H522.817ZM655.329 258.216H592.709V319.22H655.329C667.449 319.22 676.337 316.392 681.993 310.736C687.918 304.811 690.881 297.404 690.881 288.516C690.881 279.897 687.918 272.76 681.993 267.104C676.337 261.179 667.449 258.216 655.329 258.216ZM660.581 371.74H592.709V440.824H660.581C674.317 440.824 684.417 437.592 690.881 431.128C697.345 424.395 700.577 415.911 700.577 405.676C700.577 395.98 697.345 387.9 690.881 381.436C684.417 374.972 674.317 371.74 660.581 371.74ZM793.491 499L894.087 200.04H987.815L1088.41 499H1015.29L997.915 444.46H883.987L866.615 499H793.491ZM903.379 384.668H978.927L940.951 267.104L903.379 384.668ZM1253.26 503.04C1227.67 503.04 1205.32 498.731 1186.2 490.112C1167.07 481.224 1151.05 469.508 1138.12 454.964C1125.46 440.151 1115.9 423.587 1109.44 405.272C1102.97 386.957 1099.74 368.239 1099.74 349.116C1099.74 329.993 1102.97 311.409 1109.44 293.364C1115.9 275.049 1125.46 258.62 1138.12 244.076C1151.05 229.532 1167.07 217.951 1186.2 209.332C1205.32 200.444 1227.67 196 1253.26 196C1278.58 196 1300.8 200.444 1319.92 209.332C1339.04 217.951 1354.93 229.532 1367.59 244.076C1380.52 258.62 1390.22 275.049 1396.68 293.364C1403.15 311.409 1406.38 329.993 1406.38 349.116C1406.38 367.7 1403.28 386.015 1397.09 404.06C1391.16 421.836 1382.27 437.861 1370.42 452.136L1411.23 499H1339.31L1328 486.072C1317.5 491.459 1305.92 495.633 1293.26 498.596C1280.87 501.559 1267.54 503.04 1253.26 503.04ZM1253.26 440.42C1263.77 440.42 1273.6 438.669 1282.75 435.168L1237.51 384.264L1281.14 349.116L1322.75 397.192C1330.02 382.648 1333.66 366.623 1333.66 349.116C1333.66 334.033 1330.56 319.624 1324.37 305.888C1318.44 291.883 1309.42 280.436 1297.3 271.548C1285.45 262.66 1270.77 258.216 1253.26 258.216C1235.49 258.216 1220.54 262.66 1208.42 271.548C1196.57 280.436 1187.68 291.883 1181.75 305.888C1175.83 319.624 1172.87 334.033 1172.87 349.116C1172.87 364.468 1175.83 379.147 1181.75 393.152C1187.68 406.888 1196.57 418.2 1208.42 427.088C1220.54 435.976 1235.49 440.42 1253.26 440.42Z" fill="#FEFEFE"/>
</g>
<defs>
<linearGradient id="paint0_linear_38_140" x1="92.7118" y1="39.7029" x2="92.7118" y2="678.719" gradientUnits="userSpaceOnUse">
<stop stop-color="#FCC025"/>
<stop offset="1" stop-color="#DE7E07"/>
</linearGradient>
<clipPath id="clip0_38_140">
<rect width="1420" height="698" fill="white"/>
</clipPath>
</defs>
</svg>
