<svg width="1420" height="698" viewBox="0 0 1420 698" fill="none" xmlns="http://www.w3.org/2000/svg">
<g clip-path="url(#clip0_38_140)">
<path fill-rule="evenodd" clip-rule="evenodd" d="M275.462 39.7029L346.173 110.414L215.686 240.9L115.656 340.93C96.1296 360.457 96.1296 392.115 115.656 411.641C120.684 416.669 126.517 420.403 132.74 422.841L60.0218 495.559C54.779 491.549 49.7401 487.147 44.9451 482.352C-13.6335 423.773 -13.6335 328.798 44.9451 270.22L275.462 39.7029ZM169.282 329.73C175.505 332.169 181.338 335.902 186.366 340.93C205.615 360.179 205.889 391.217 187.188 410.8L187.198 410.81L186.366 411.641L86.3358 511.672L10.421 587.587L81.1317 658.297L257.077 482.352L257.908 481.521L257.905 481.517C315.654 422.875 315.378 328.521 257.077 270.22C252.282 265.425 247.243 261.022 242 257.012L169.282 329.73Z" fill="url(#paint0_linear_38_140)"/>
<path d="M522.856 499V200.04H668.7C688.092 200.04 704.387 203.407 717.584 210.14C731.051 216.604 741.151 225.492 747.884 236.804C754.887 247.847 758.388 260.101 758.388 273.568C758.388 286.227 756.099 296.865 751.52 305.484C746.941 314.103 741.151 321.105 734.148 326.492C727.145 331.879 720.008 335.515 712.736 337.4V341.036C720.277 342.652 728.492 346.153 737.38 351.54C746.537 356.927 754.348 364.737 760.812 374.972C767.545 384.937 770.912 397.865 770.912 413.756C770.912 428.031 767.545 441.632 760.812 454.56C754.348 467.488 743.844 478.127 729.3 486.476C714.756 494.825 695.633 499 671.932 499H522.856ZM655.368 258.216H592.748V319.22H655.368C667.488 319.22 676.376 316.392 682.032 310.736C687.957 304.811 690.92 297.404 690.92 288.516C690.92 279.897 687.957 272.76 682.032 267.104C676.376 261.179 667.488 258.216 655.368 258.216ZM660.62 371.74H592.748V440.824H660.62C674.356 440.824 684.456 437.592 690.92 431.128C697.384 424.395 700.616 415.911 700.616 405.676C700.616 395.98 697.384 387.9 690.92 381.436C684.456 374.972 674.356 371.74 660.62 371.74ZM793.53 499L894.126 200.04H987.854L1088.45 499H1015.33L997.954 444.46H884.026L866.654 499H793.53ZM903.418 384.668H978.966L940.99 267.104L903.418 384.668ZM1253.3 503.04C1227.71 503.04 1205.36 498.731 1186.24 490.112C1167.11 481.224 1151.09 469.508 1138.16 454.964C1125.5 440.151 1115.94 423.587 1109.48 405.272C1103.01 386.957 1099.78 368.239 1099.78 349.116C1099.78 329.993 1103.01 311.409 1109.48 293.364C1115.94 275.049 1125.5 258.62 1138.16 244.076C1151.09 229.532 1167.11 217.951 1186.24 209.332C1205.36 200.444 1227.71 196 1253.3 196C1278.62 196 1300.84 200.444 1319.96 209.332C1339.08 217.951 1354.97 229.532 1367.63 244.076C1380.56 258.62 1390.26 275.049 1396.72 293.364C1403.18 311.409 1406.42 329.993 1406.42 349.116C1406.42 367.7 1403.32 386.015 1397.12 404.06C1391.2 421.836 1382.31 437.861 1370.46 452.136L1411.26 499H1339.35L1328.04 486.072C1317.54 491.459 1305.96 495.633 1293.3 498.596C1280.91 501.559 1267.58 503.04 1253.3 503.04ZM1253.3 440.42C1263.8 440.42 1273.64 438.669 1282.79 435.168L1237.54 384.264L1281.18 349.116L1322.79 397.192C1330.06 382.648 1333.7 366.623 1333.7 349.116C1333.7 334.033 1330.6 319.624 1324.4 305.888C1318.48 291.883 1309.46 280.436 1297.34 271.548C1285.49 262.66 1270.81 258.216 1253.3 258.216C1235.52 258.216 1220.58 262.66 1208.46 271.548C1196.61 280.436 1187.72 291.883 1181.79 305.888C1175.87 319.624 1172.9 334.033 1172.9 349.116C1172.9 364.468 1175.87 379.147 1181.79 393.152C1187.72 406.888 1196.61 418.2 1208.46 427.088C1220.58 435.976 1235.52 440.42 1253.3 440.42Z" fill="#FEFEFE"/>
</g>
<defs>
<linearGradient id="paint0_linear_38_140" x1="92.7118" y1="39.7029" x2="92.7118" y2="678.719" gradientUnits="userSpaceOnUse">
<stop stop-color="#FCC025"/>
<stop offset="1" stop-color="#DE7E07"/>
</linearGradient>
<clipPath id="clip0_38_140">
<rect width="1420" height="698" fill="white"/>
</clipPath>
</defs>
</svg>
