<svg width="1500" height="1500" viewBox="0 0 1500 1500" fill="none" xmlns="http://www.w3.org/2000/svg">
<g clip-path="url(#clip0_72_95)">
<mask id="mask0_72_95" style="mask-type:alpha" maskUnits="userSpaceOnUse" x="0" y="0" width="1500" height="1500">
<rect width="1500" height="1500" fill="url(#paint0_radial_72_95)"/>
</mask>
<g mask="url(#mask0_72_95)">
<g filter="url(#filter0_f_72_95)">
<path fill-rule="evenodd" clip-rule="evenodd" d="M948.363 195L1068.12 314.752L847.131 535.737L677.775 705.092C677.758 705.109 677.741 705.126 677.724 705.143C644.655 738.212 644.655 791.827 677.724 824.895C686.24 833.411 696.118 839.734 706.657 843.863L583.505 967.015C574.626 960.224 566.093 952.768 557.972 944.647C458.766 845.441 458.766 684.597 557.972 585.391L948.363 195ZM768.543 686.175C779.082 690.305 788.96 696.628 797.476 705.143C830.074 737.741 830.538 790.305 798.867 823.472L798.883 823.488L797.476 824.895L628.069 994.302L499.504 1122.87L619.256 1242.62L917.228 944.647L918.635 943.24L918.63 943.234C1016.43 843.92 1015.96 684.127 917.228 585.391C909.107 577.271 900.574 569.815 891.695 563.024L768.543 686.175Z" fill="url(#paint1_linear_72_95)"/>
</g>
<g filter="url(#filter1_d_72_95)">
<path fill-rule="evenodd" clip-rule="evenodd" d="M1003.94 406.608L911.334 314L609.47 615.864L609.431 615.903C532.712 692.622 532.712 817.008 609.431 893.727C615.711 900.007 622.311 905.773 629.177 911.025L724.414 815.788C716.264 812.594 708.625 807.704 702.04 801.119C676.466 775.546 676.466 734.084 702.039 708.511L833.047 577.503L1003.94 406.608ZM867.51 598.605L772.273 693.842C780.423 697.036 788.062 701.925 794.648 708.511C819.857 733.72 820.216 774.37 795.724 800.018L795.736 800.031L794.693 801.074L794.648 801.119L794.603 801.164L663.64 932.127L564.216 1031.55L656.824 1124.16L887.256 893.727L888.345 892.639L888.34 892.634C963.973 815.831 963.612 692.259 887.256 615.903C880.976 609.623 874.377 603.857 867.51 598.605Z" fill="url(#paint2_linear_72_95)"/>
</g>
</g>
</g>
<defs>
<filter id="filter0_f_72_95" x="-111" y="-176" width="1792" height="1792" filterUnits="userSpaceOnUse" color-interpolation-filters="sRGB">
<feFlood flood-opacity="0" result="BackgroundImageFix"/>
<feBlend mode="normal" in="SourceGraphic" in2="BackgroundImageFix" result="shape"/>
<feGaussianBlur stdDeviation="185.5" result="effect1_foregroundBlur_72_95"/>
</filter>
<filter id="filter1_d_72_95" x="321" y="260" width="928" height="928" filterUnits="userSpaceOnUse" color-interpolation-filters="sRGB">
<feFlood flood-opacity="0" result="BackgroundImageFix"/>
<feColorMatrix in="SourceAlpha" type="matrix" values="0 0 0 0 0 0 0 0 0 0 0 0 0 0 0 0 0 0 127 0" result="hardAlpha"/>
<feOffset dy="4"/>
<feGaussianBlur stdDeviation="29"/>
<feComposite in2="hardAlpha" operator="out"/>
<feColorMatrix type="matrix" values="0 0 0 0 1 0 0 0 0 1 0 0 0 0 1 0 0 0 0.8 0"/>
<feBlend mode="normal" in2="BackgroundImageFix" result="effect1_dropShadow_72_95"/>
<feBlend mode="normal" in="SourceGraphic" in2="effect1_dropShadow_72_95" result="shape"/>
</filter>
<radialGradient id="paint0_radial_72_95" cx="0" cy="0" r="1" gradientUnits="userSpaceOnUse" gradientTransform="translate(750 750) rotate(90) scale(750)">
<stop offset="0.845" stop-color="#D9D9D9"/>
<stop offset="1" stop-color="white" stop-opacity="0"/>
</radialGradient>
<linearGradient id="paint1_linear_72_95" x1="638.867" y1="195" x2="638.867" y2="1277.2" gradientUnits="userSpaceOnUse">
<stop stop-color="#FCC025"/>
<stop offset="1" stop-color="#DE7E07"/>
</linearGradient>
<linearGradient id="paint2_linear_72_95" x1="671.99" y1="314" x2="671.99" y2="1150.9" gradientUnits="userSpaceOnUse">
<stop stop-color="#FCC025"/>
<stop offset="1" stop-color="#DE7E07"/>
</linearGradient>
<clipPath id="clip0_72_95">
<rect width="1500" height="1500" fill="white"/>
</clipPath>
</defs>
</svg>
