<svg width="1500" height="1500" viewBox="0 0 1500 1500" fill="none" xmlns="http://www.w3.org/2000/svg">
<g clip-path="url(#clip0_52_54)">
<mask id="mask0_52_54" style="mask-type:alpha" maskUnits="userSpaceOnUse" x="0" y="0" width="1500" height="1500">
<rect width="1500" height="1500" fill="url(#paint0_radial_52_54)"/>
</mask>
<g mask="url(#mask0_52_54)">
<g filter="url(#filter0_f_52_54)">
<path fill-rule="evenodd" clip-rule="evenodd" d="M1030.91 368.013L926.893 264L587.868 603.024L587.81 603.083C501.642 689.25 501.643 828.955 587.81 915.122C594.863 922.175 602.275 928.651 609.987 934.55L716.953 827.584C707.799 823.997 699.219 818.505 691.823 811.109C663.1 782.387 663.1 735.818 691.823 707.096L838.965 559.954L1030.91 368.013ZM877.672 583.655L770.706 690.621C779.86 694.208 788.44 699.699 795.836 707.096C824.15 735.41 824.553 781.065 797.044 809.872L797.059 809.887L795.884 811.061L795.836 811.109L795.788 811.157L648.694 958.251L537.026 1069.92L641.039 1173.93L899.849 915.122L901.072 913.899L901.067 913.895C986.015 827.633 985.609 688.842 899.849 603.083C892.796 596.029 885.384 589.554 877.672 583.655Z" fill="url(#paint1_linear_52_54)"/>
</g>
<g filter="url(#filter1_d_52_54)">
<path fill-rule="evenodd" clip-rule="evenodd" d="M1003.94 406.608L911.334 314L609.47 615.864L609.431 615.903C532.712 692.622 532.712 817.008 609.431 893.727C615.711 900.007 622.311 905.773 629.177 911.025L724.414 815.788C716.264 812.594 708.625 807.704 702.04 801.119C676.466 775.546 676.466 734.084 702.039 708.511L833.047 577.503L1003.94 406.608ZM867.51 598.605L772.273 693.842C780.423 697.036 788.062 701.925 794.648 708.511C819.857 733.72 820.216 774.37 795.724 800.018L795.736 800.031L794.693 801.074L794.648 801.119L794.603 801.164L663.64 932.127L564.216 1031.55L656.824 1124.16L887.256 893.727L888.345 892.639L888.34 892.634C963.973 815.831 963.612 692.259 887.256 615.903C880.976 609.623 874.377 603.857 867.51 598.605Z" fill="url(#paint2_linear_52_54)"/>
</g>
</g>
</g>
<defs>
<filter id="filter0_f_52_54" x="-42" y="-107" width="1654" height="1654" filterUnits="userSpaceOnUse" color-interpolation-filters="sRGB">
<feFlood flood-opacity="0" result="BackgroundImageFix"/>
<feBlend mode="normal" in="SourceGraphic" in2="BackgroundImageFix" result="shape"/>
<feGaussianBlur stdDeviation="185.5" result="effect1_foregroundBlur_52_54"/>
</filter>
<filter id="filter1_d_52_54" x="329" y="268" width="912" height="912" filterUnits="userSpaceOnUse" color-interpolation-filters="sRGB">
<feFlood flood-opacity="0" result="BackgroundImageFix"/>
<feColorMatrix in="SourceAlpha" type="matrix" values="0 0 0 0 0 0 0 0 0 0 0 0 0 0 0 0 0 0 127 0" result="hardAlpha"/>
<feOffset dy="4"/>
<feGaussianBlur stdDeviation="25"/>
<feComposite in2="hardAlpha" operator="out"/>
<feColorMatrix type="matrix" values="0 0 0 0 0 0 0 0 0 0 0 0 0 0 0 0 0 0 0.4 0"/>
<feBlend mode="normal" in2="BackgroundImageFix" result="effect1_dropShadow_52_54"/>
<feBlend mode="normal" in="SourceGraphic" in2="effect1_dropShadow_52_54" result="shape"/>
</filter>
<radialGradient id="paint0_radial_52_54" cx="0" cy="0" r="1" gradientUnits="userSpaceOnUse" gradientTransform="translate(750 750) rotate(90) scale(750)">
<stop offset="0.845" stop-color="#D9D9D9"/>
<stop offset="1" stop-color="white" stop-opacity="0"/>
</radialGradient>
<linearGradient id="paint1_linear_52_54" x1="658.073" y1="264" x2="658.073" y2="1203.97" gradientUnits="userSpaceOnUse">
<stop stop-color="#FCC025"/>
<stop offset="1" stop-color="#DE7E07"/>
</linearGradient>
<linearGradient id="paint2_linear_52_54" x1="671.99" y1="314" x2="671.99" y2="1150.9" gradientUnits="userSpaceOnUse">
<stop stop-color="#FCC025"/>
<stop offset="1" stop-color="#DE7E07"/>
</linearGradient>
<clipPath id="clip0_52_54">
<rect width="1500" height="1500" fill="white"/>
</clipPath>
</defs>
</svg>
